<!DOCTYPE svg PUBLIC "-//W3C//DTD SVG 1.1//EN" "http://www.w3.org/Graphics/SVG/1.1/DTD/svg11.dtd">
<!-- Uploaded to: SVG Repo, www.svgrepo.com, Transformed by: SVG Repo Mixer Tools -->
<svg fill="#ffffff" height="256px" width="256px" version="1.1" id="Layer_1" xmlns="http://www.w3.org/2000/svg" xmlns:xlink="http://www.w3.org/1999/xlink" viewBox="0 0 490 490" xml:space="preserve" stroke="#ffffff">
<g id="SVGRepo_bgCarrier" stroke-width="0"/>
<g id="SVGRepo_tracerCarrier" stroke-linecap="round" stroke-linejoin="round"/>
<g id="SVGRepo_iconCarrier"> <g> <g> <path d="M470,0H20C8.972,0,0,8.972,0,20v320c0,11.028,8.972,20,20,20h150v70h-15c-11.028,0-20,8.972-20,20v20h-15v20h250v-20h-15 v-20c0-11.028-8.972-20-20-20h-15v-70h150c11.028,0,20-8.972,20-20V20C490,8.972,481.028,0,470,0z M20,200h45v40H20V200z M335,450 v20H155v-20H335z M190,430v-70h110v70H190z M470,340H20v-80h450V340z M250,183.537V240h-55V118.562 c3.483-1.03,6.765-2.608,9.756-4.663l22.856,22.856C225.908,140.934,225,145.447,225,150C225,165.824,235.56,179.223,250,183.537z M292.388,136.754l7.856-7.856c2.991,2.055,6.273,3.633,9.755,4.663V240h-40v-56.463H270c14.44-4.314,25-17.712,25-33.537 C295,145.447,294.092,140.933,292.388,136.754z M332.016,108.979C329.13,112.806,324.75,115,320,115s-9.13-2.194-12.016-6.021 c-0.002-0.003-0.005-0.007-0.008-0.01C306.057,106.431,305,103.245,305,100c0-8.271,6.729-15,15-15s15,6.729,15,15 C335,103.245,333.943,106.431,332.016,108.979z M339.756,128.899L395,184.143V240h-65V133.562 C333.483,132.532,336.765,130.954,339.756,128.899z M260,165c-8.271,0-15-6.729-15-15c0-3.245,1.057-6.431,2.984-8.979 C250.87,137.194,255.25,135,260,135s9.13,2.194,12.016,6.021c0.002,0.003,0.005,0.007,0.008,0.01 c1.919,2.538,2.976,5.724,2.976,8.969C275,158.271,268.271,165,260,165z M197.016,93.979C194.13,97.806,189.75,100,185,100 s-9.13-2.194-12.016-6.021c-0.002-0.003-0.005-0.007-0.008-0.01C171.057,91.431,170,88.245,170,85c0-8.271,6.729-15,15-15 s15,6.729,15,15C200,88.245,198.943,91.431,197.016,93.979z M175,118.561V240H85v-45.857l80.245-80.245 C168.236,115.953,171.518,117.531,175,118.561z M470,240h-55v-50h55V240z M470,170h-60.858l-56.754-56.754 c1.704-4.18,2.612-8.693,2.612-13.246c0-19.299-15.701-35-35-35s-35,15.701-35,35c0,4.553,0.908,9.067,2.612,13.246l-7.856,7.856 C274.019,117.161,267.2,115,260,115c-7.201,0-14.021,2.162-19.756,6.102l-22.856-22.856C219.092,94.066,220,89.553,220,85 c0-19.299-15.701-35-35-35s-35,15.701-35,35c0,4.553,0.908,9.067,2.612,13.246L70.858,180H20V20h450V170z"/> </g> </g> </g>
</svg>